# xmcd
#
# Track frame offsets: 
#        151
#        17220
#        34873
#        51954
#        69937
#        87594
#        103307
#        120964
#        138021
#        155286
#
# Disc length: 2321 seconds
#
# Revision: 0
# Processed by: cddbd v1.5.1PL2 Copyright (c) Steve Scherf et al.
# Submitted via: ExactAudioCopy v0.95b4
#
DISCID=7d090f0a
DTITLE=น้องเบนซ์  จูเนียร์  - ฮับแบบเด็กๆ 
DYEAR=2006
DGENRE=Country
TTITLE0=๙๙/๗๐
TTITLE1=จักรยานโซ่หย่อน
TTITLE2=เก็บเสีย
TTITLE3=ฮักแบบเด็กๆ
TTITLE4=เรื่องเล่าเช้านี้
TTITLE5=กระปุกออมสิน
TTITLE6=กอดลูกให้แน่นๆ
TTITLE7=โรงเรียนของหนู
TTITLE8=มะละกอแตงโมกลัวยส้ม
TTITLE9=ประหยัดใช้พลังงงาน
EXTD=
EXTT0=
EXTT1=
EXTT2=
EXTT3=
EXTT4=
EXTT5=
EXTT6=
EXTT7=
EXTT8=
EXTT9=
PLAYORDER=
